      <svg
              viewBox="0 0 35 40"
              fill="none"
              xmlns="http://www.w3.org/2000/svg"
            >
              <path
                fillRule="evenodd"
                clipRule="evenodd"
                d="M31.53 39.141C29.73 39.141 28.268 37.68 28.268 35.879V33.704C28.268 30.708 25.828 28.269 22.832 28.269H11.96C8.963 28.269 6.524 30.708 6.524 33.704V35.879C6.524 37.68 5.062 39.141 3.261 39.141C1.461 39.141 0 37.68 0 35.879V33.704C0 27.108 5.362 21.745 11.96 21.745H22.832C29.429 21.745 34.791 27.108 34.791 33.704V35.879C34.791 37.68 33.33 39.141 31.53 39.141ZM17.396 6.524C16.2 6.524 15.221 7.502 15.221 8.699C15.221 9.894 16.2 10.872 17.396 10.872C18.592 10.872 19.571 9.894 19.571 8.699C19.571 7.502 18.592 6.524 17.396 6.524ZM17.396 17.396C12.599 17.396 8.698 13.495 8.698 8.699C8.698 3.902 12.599 0 17.396 0C22.193 0 26.094 3.902 26.094 8.699C26.094 13.495 22.193 17.396 17.396 17.396Z"
                fill="#B4E7E7"
              />
            </svg>
    